<svg id="Layer_1" enable-background="new 0 0 448.056 448.056" height="1.8rem" viewBox="0 0 448.056 448.056" width="1.8rem" xmlns="http://www.w3.org/2000/svg"><path d="m447.237 20.998-130.735 400.086c-4.292 13.135-22.094 15.018-29.04 3.073l-78.71-135.365c-3.216-5.531-2.828-12.446.986-17.582l62.616-84.315c5.489-7.392-3.801-16.682-11.192-11.192l-84.315 62.616c-5.136 3.814-12.051 4.202-17.582.986l-135.365-78.71c-11.945-6.946-10.062-24.748 3.073-29.04l400.085-130.735c12.45-4.069 24.247 7.728 20.179 20.178z" fill="#84f8fb"/><g fill="#e8f8fc"><path d="m16.177 431.879c-6.249-6.248-6.249-16.379 0-22.627l106.23-106.23c6.25-6.247 16.381-6.249 22.627 0 6.249 6.248 6.249 16.379 0 22.627l-106.23 106.23c-6.248 6.248-16.38 6.249-22.627 0z"/><path d="m4.687 329.67c-6.249-6.249-6.249-16.379 0-22.627l41.92-41.92c6.248-6.248 16.379-6.248 22.627 0 6.249 6.249 6.249 16.379 0 22.627l-41.92 41.92c-6.248 6.248-16.379 6.248-22.627 0z"/><path d="m118.387 443.369c-6.249-6.249-6.249-16.379 0-22.627l41.92-41.92c6.248-6.248 16.379-6.248 22.627 0 6.249 6.249 6.249 16.379 0 22.627l-41.92 41.92c-6.248 6.248-16.379 6.249-22.627 0z"/></g><path d="m447.24 20.996c-.917 2.806-2.561 10.206-10.994 12.962l-329.276 107.598c-13.13 4.29-15.02 22.09-3.07 29.04l71.483 41.565c9.738 5.663 10.511 19.439 1.467 26.155-5.199 3.86-12.119 4.176-17.59.99l-135.36-78.71c-11.95-6.95-10.06-24.75 3.07-29.04l400.09-130.74c12.45-4.06 24.241 7.73 20.18 20.18z" fill="#bbfbff"/><path d="m385.878 208.786-69.378 212.3c-4.29 13.13-22.09 15.02-29.04 3.07l-78.71-135.36c-6.43-11.261 9.877-19.564 15.81-9.36l60.9 104.72c6.95 11.95 24.75 10.06 29.04-3.07l57.756-176.751c1.367-4.185 6.15-6.158 10.071-4.155 3.141 1.604 4.647 5.255 3.551 8.606z" fill="#6ef3f9"/></svg>